<svg width="60" height="60" viewBox="0 0 60 60" fill="none" xmlns="http://www.w3.org/2000/svg">
<circle cx="30" cy="30" r="30" fill="#101010"/>
<path d="M36.7675 14.0899C37.2362 14.5587 37.4995 15.1945 37.4995 15.8574C37.4995 16.5203 37.2362 17.1561 36.7675 17.6249L24.3925 29.9999L36.7675 42.3749C37.2229 42.8464 37.4749 43.4779 37.4692 44.1334C37.4635 44.7889 37.2006 45.4159 36.737 45.8794C36.2735 46.3429 35.6465 46.6059 34.991 46.6116C34.3355 46.6173 33.704 46.3653 33.2325 45.9099L19.09 31.7674C18.6213 31.2986 18.358 30.6628 18.358 29.9999C18.358 29.337 18.6213 28.7012 19.09 28.2324L33.2325 14.0899C33.7013 13.6212 34.3371 13.3579 35 13.3579C35.6629 13.3579 36.2987 13.6212 36.7675 14.0899Z" fill="#CDC9C4"/>
</svg>
