<svg width="60" height="60" viewBox="0 0 60 60" fill="none" xmlns="http://www.w3.org/2000/svg">
<circle cx="30" cy="30" r="30" transform="matrix(-1 0 0 1 60 0)" fill="#101010"/>
<path d="M23.2325 14.0899C22.7638 14.5587 22.5005 15.1945 22.5005 15.8574C22.5005 16.5203 22.7638 17.1561 23.2325 17.6249L35.6075 29.9999L23.2325 42.3749C22.7771 42.8464 22.5251 43.4779 22.5308 44.1334C22.5365 44.7889 22.7994 45.4159 23.263 45.8794C23.7265 46.3429 24.3535 46.6059 25.009 46.6116C25.6645 46.6173 26.296 46.3653 26.7675 45.9099L40.91 31.7674C41.3787 31.2986 41.642 30.6628 41.642 29.9999C41.642 29.337 41.3787 28.7012 40.91 28.2324L26.7675 14.0899C26.2987 13.6212 25.6629 13.3579 25 13.3579C24.3371 13.3579 23.7013 13.6212 23.2325 14.0899Z" fill="#CDC9C4"/>
</svg>
