<svg aria-hidden="true" style="position: absolute; width: 0; height: 0; overflow: hidden;" version="1.1" xmlns="http://www.w3.org/2000/svg" xmlns:xlink="http://www.w3.org/1999/xlink">
<defs>
<symbol id="icon-logo" viewBox="0 0 30 32">
<path d="M0 0h28.8v32h-28.8v-32z"></path>
</symbol>
<symbol id="icon-Vector" viewBox="0 0 45 32">
<path fill="#906c3b" style="fill: var(--color1, #906c3b)" d="M39.466 0.64c1.884 0 3.414 1.528 3.414 3.414v23.892c0 1.884-1.528 3.414-3.414 3.414h-34.132c-1.884 0-3.414-1.528-3.414-3.414v-23.892c0-1.884 1.528-3.414 3.414-3.414h34.132zM16.6 18.72l-10.056 9.937h31.386l-9.947-9.835-5.583 3.865-5.8-3.967zM40.095 10.454l-9.822 6.791 9.822 9.699v-16.491zM4.707 10.579v16.048l9.597-9.484-9.597-6.564zM39.433 3.345h-34.036c-0.187-0.009-0.37 0.054-0.512 0.176-0.063 0.056-0.112 0.127-0.142 0.206s-0.041 0.164-0.032 0.248v3.318l17.689 12.098 17.703-12.216v-3.056c0.002-0.274-0.061-0.473-0.188-0.598-0.063-0.061-0.139-0.109-0.221-0.139s-0.171-0.043-0.258-0.037z"></path>
</symbol>
<symbol id="icon-Vector-1" viewBox="0 0 26 32">
<path fill="#906c3b" style="fill: var(--color1, #906c3b)" d="M12.8 2.844c-2.263 0-4.434 0.899-6.034 2.499s-2.499 3.771-2.499 6.034c0 2.011 1.141 4.191 2.763 6.235 1.599 2.014 3.54 3.739 4.871 4.82 0.253 0.21 0.571 0.324 0.899 0.324s0.646-0.115 0.899-0.324c1.331-1.081 3.273-2.806 4.871-4.821 1.626-2.041 2.763-4.221 2.763-6.234 0-2.263-0.899-4.434-2.499-6.034s-3.771-2.499-6.034-2.499zM2.133 11.378c0-2.829 1.124-5.542 3.124-7.542s4.713-3.124 7.542-3.124c2.829 0 5.542 1.124 7.542 3.124s3.124 4.714 3.124 7.542c0 2.748-1.513 5.404-3.226 7.561-1.735 2.186-3.809 4.023-5.198 5.151-1.317 1.067-3.169 1.067-4.486 0-1.39-1.128-3.463-2.965-5.198-5.151-1.712-2.155-3.226-4.813-3.226-7.561zM12.8 9.244c-0.566 0-1.108 0.225-1.508 0.625s-0.625 0.943-0.625 1.508c0 0.566 0.225 1.108 0.625 1.508s0.943 0.625 1.508 0.625c0.566 0 1.108-0.225 1.508-0.625s0.625-0.943 0.625-1.508c0-0.566-0.225-1.108-0.625-1.508s-0.943-0.625-1.508-0.625zM8.533 11.378c0-1.132 0.45-2.217 1.25-3.017s1.885-1.25 3.017-1.25c1.132 0 2.217 0.45 3.017 1.25s1.25 1.885 1.25 3.017c0 1.132-0.45 2.217-1.25 3.017s-1.885 1.25-3.017 1.25c-1.132 0-2.217-0.45-3.017-1.25s-1.25-1.885-1.25-3.017zM20.881 20.403c-0.518 0.616-1.052 1.197-1.584 1.741 0.507 0.142 0.977 0.299 1.408 0.469 0.99 0.388 1.717 0.825 2.179 1.257 0.462 0.43 0.583 0.774 0.583 1.018s-0.121 0.589-0.583 1.018c-0.462 0.431-1.189 0.868-2.177 1.257-1.971 0.777-4.764 1.28-7.906 1.28s-5.935-0.503-7.906-1.28c-0.988-0.39-1.715-0.826-2.179-1.257-0.461-0.429-0.582-0.774-0.582-1.018s0.121-0.589 0.583-1.018c0.462-0.431 1.189-0.867 2.177-1.257 0.433-0.171 0.903-0.327 1.408-0.469-0.53-0.543-1.067-1.125-1.583-1.741-0.208 0.073-0.41 0.148-0.607 0.225-1.135 0.447-2.125 1.006-2.85 1.681-0.725 0.677-1.262 1.548-1.262 2.58s0.535 1.903 1.262 2.58c0.725 0.674 1.715 1.233 2.85 1.681 2.277 0.896 5.349 1.428 8.688 1.428s6.411-0.532 8.687-1.428c1.136-0.448 2.126-1.007 2.852-1.681 0.725-0.677 1.261-1.547 1.261-2.58s-0.535-1.903-1.261-2.58c-0.725-0.675-1.715-1.234-2.852-1.681-0.196-0.078-0.398-0.153-0.606-0.225z"></path>
</symbol>
<symbol id="icon-Vector-2" viewBox="0 0 48 32">
<path fill="#906c3b" style="fill: var(--color1, #906c3b)" d="M2.667 32c-0.756 0-1.388-0.256-1.899-0.768s-0.766-1.145-0.768-1.899c-0.002-0.754 0.254-1.387 0.768-1.899s1.147-0.768 1.899-0.768h42.667c0.756 0 1.39 0.256 1.902 0.768s0.767 1.145 0.765 1.899c-0.002 0.754-0.258 1.388-0.768 1.901s-1.143 0.769-1.899 0.765h-42.667zM2.667 18.667c-0.756 0-1.388-0.256-1.899-0.768s-0.766-1.145-0.768-1.899c-0.002-0.754 0.254-1.387 0.768-1.899s1.147-0.768 1.899-0.768h42.667c0.756 0 1.39 0.256 1.902 0.768s0.767 1.145 0.765 1.899c-0.002 0.754-0.258 1.388-0.768 1.901s-1.143 0.769-1.899 0.765h-42.667zM2.667 5.333c-0.756 0-1.388-0.256-1.899-0.768s-0.766-1.145-0.768-1.899c-0.002-0.754 0.254-1.387 0.768-1.899s1.147-0.768 1.899-0.768h42.667c0.756 0 1.39 0.256 1.902 0.768s0.767 1.145 0.765 1.899c-0.002 0.754-0.258 1.388-0.768 1.901s-1.143 0.769-1.899 0.765h-42.667z"></path>
</symbol>
</defs>
</svg>
