<svg width="14" height="10" viewBox="0 0 14 10" fill="none" xmlns="http://www.w3.org/2000/svg">
<path fill-rule="evenodd" clip-rule="evenodd" d="M12.3331 0.2C12.9219 0.2 13.4 0.67744 13.4 1.26688V8.73312C13.4 9.32192 12.9225 9.8 12.3331 9.8H1.66686C1.07806 9.8 0.599976 9.32256 0.599976 8.73312V1.26688C0.599976 0.67808 1.07742 0.2 1.66686 0.2H12.3331ZM5.1875 5.84992L2.0451 8.9552H11.8531L8.74462 5.88192L6.99998 7.0896L5.1875 5.84992ZM12.5296 3.26688L9.46014 5.38912L12.5296 8.42016V3.26688ZM1.47102 3.30592V8.32096L4.47006 5.35712L1.47102 3.30592ZM12.3229 1.04544H1.6867C1.62829 1.0427 1.57105 1.06239 1.5267 1.10048C1.50699 1.11813 1.49177 1.14023 1.48231 1.16494C1.47285 1.18965 1.46941 1.21626 1.4723 1.24256V2.27936L6.99998 6.05984L12.5321 2.24224V1.28736C12.5328 1.2016 12.5129 1.13952 12.4733 1.10048C12.4536 1.08131 12.43 1.0665 12.4042 1.05702C12.3784 1.04753 12.3509 1.04359 12.3235 1.04544" fill="#906C3B"/>
</svg>
