<svg width="12" height="8" viewBox="0 0 12 8" fill="none" xmlns="http://www.w3.org/2000/svg">
<path d="M0.666669 8C0.47778 8 0.319558 7.936 0.192002 7.808C0.0644468 7.68 0.000446743 7.52178 2.29885e-06 7.33333C-0.000442146 7.14489 0.0635579 6.98667 0.192002 6.85867C0.320447 6.73067 0.478669 6.66667 0.666669 6.66667H11.3333C11.5222 6.66667 11.6807 6.73067 11.8087 6.85867C11.9367 6.98667 12.0004 7.14489 12 7.33333C11.9996 7.52178 11.9356 7.68022 11.808 7.80867C11.6804 7.93711 11.5222 8.00089 11.3333 8H0.666669ZM0.666669 4.66667C0.47778 4.66667 0.319558 4.60267 0.192002 4.47467C0.0644468 4.34667 0.000446743 4.18845 2.29885e-06 4C-0.000442146 3.81156 0.0635579 3.65333 0.192002 3.52533C0.320447 3.39733 0.478669 3.33333 0.666669 3.33333H11.3333C11.5222 3.33333 11.6807 3.39733 11.8087 3.52533C11.9367 3.65333 12.0004 3.81156 12 4C11.9996 4.18845 11.9356 4.34689 11.808 4.47533C11.6804 4.60378 11.5222 4.66756 11.3333 4.66667H0.666669ZM0.666669 1.33333C0.47778 1.33333 0.319558 1.26933 0.192002 1.14133C0.0644468 1.01333 0.000446743 0.855111 2.29885e-06 0.666667C-0.000442146 0.478222 0.0635579 0.32 0.192002 0.192C0.320447 0.0640001 0.478669 0 0.666669 0H11.3333C11.5222 0 11.6807 0.0640001 11.8087 0.192C11.9367 0.32 12.0004 0.478222 12 0.666667C11.9996 0.855111 11.9356 1.01356 11.808 1.142C11.6804 1.27044 11.5222 1.33422 11.3333 1.33333H0.666669Z" fill="#906C3B"/>
</svg>
