<svg width="12" height="15" viewBox="0 0 12 15" fill="none" xmlns="http://www.w3.org/2000/svg">
<path d="M6 1.33333C4.93913 1.33333 3.92172 1.75476 3.17157 2.50491C2.42143 3.25505 2 4.27247 2 5.33333C2 6.276 2.53467 7.298 3.29533 8.256C4.04467 9.2 4.95467 10.0087 5.57867 10.5153C5.6971 10.6136 5.84613 10.6673 6 10.6673C6.15387 10.6673 6.3029 10.6136 6.42133 10.5153C7.04533 10.0087 7.95533 9.2 8.70467 8.25533C9.46667 7.29867 10 6.27667 10 5.33333C10 4.27247 9.57857 3.25505 8.82843 2.50491C8.07828 1.75476 7.06087 1.33333 6 1.33333ZM1 5.33333C1 4.00725 1.52678 2.73548 2.46447 1.7978C3.40215 0.860117 4.67392 0.333333 6 0.333333C7.32608 0.333333 8.59785 0.860117 9.53553 1.7978C10.4732 2.73548 11 4.00725 11 5.33333C11 6.62133 10.2907 7.86667 9.488 8.87733C8.67467 9.902 7.70267 10.7633 7.05133 11.292C6.434 11.792 5.566 11.792 4.94867 11.292C4.29733 10.7633 3.32533 9.902 2.512 8.87733C1.70933 7.86733 1 6.62133 1 5.33333ZM6 4.33333C5.73478 4.33333 5.48043 4.43869 5.29289 4.62623C5.10536 4.81376 5 5.06812 5 5.33333C5 5.59855 5.10536 5.8529 5.29289 6.04044C5.48043 6.22798 5.73478 6.33333 6 6.33333C6.26522 6.33333 6.51957 6.22798 6.70711 6.04044C6.89464 5.8529 7 5.59855 7 5.33333C7 5.06812 6.89464 4.81376 6.70711 4.62623C6.51957 4.43869 6.26522 4.33333 6 4.33333ZM4 5.33333C4 4.8029 4.21071 4.29419 4.58579 3.91912C4.96086 3.54405 5.46957 3.33333 6 3.33333C6.53043 3.33333 7.03914 3.54405 7.41421 3.91912C7.78929 4.29419 8 4.8029 8 5.33333C8 5.86377 7.78929 6.37247 7.41421 6.74755C7.03914 7.12262 6.53043 7.33333 6 7.33333C5.46957 7.33333 4.96086 7.12262 4.58579 6.74755C4.21071 6.37247 4 5.86377 4 5.33333ZM9.788 9.564C9.54533 9.85267 9.29467 10.1253 9.04533 10.38C9.28311 10.4467 9.50311 10.52 9.70533 10.6C10.1693 10.782 10.51 10.9867 10.7267 11.1893C10.9433 11.3907 11 11.552 11 11.6667C11 11.7813 10.9433 11.9427 10.7267 12.144C10.51 12.346 10.1693 12.5507 9.706 12.7333C8.782 13.0973 7.47267 13.3333 6 13.3333C4.52733 13.3333 3.218 13.0973 2.294 12.7333C1.83067 12.5507 1.49 12.346 1.27267 12.144C1.05667 11.9427 1 11.7813 1 11.6667C1 11.552 1.05667 11.3907 1.27333 11.1893C1.49 10.9873 1.83067 10.7827 2.294 10.6C2.49711 10.52 2.71711 10.4467 2.954 10.38C2.70533 10.1253 2.454 9.85267 2.212 9.564C2.11467 9.59822 2.01978 9.63333 1.92733 9.66933C1.39533 9.87867 0.931333 10.1407 0.591333 10.4573C0.251333 10.7747 0 11.1827 0 11.6667C0 12.1507 0.250667 12.5587 0.591333 12.876C0.931333 13.192 1.39533 13.454 1.92733 13.664C2.99467 14.084 4.43467 14.3333 6 14.3333C7.56533 14.3333 9.00533 14.084 10.072 13.664C10.6047 13.454 11.0687 13.192 11.4087 12.876C11.7487 12.5587 12 12.1507 12 11.6667C12 11.1827 11.7493 10.7747 11.4087 10.4573C11.0687 10.1407 10.6047 9.87867 10.072 9.66933C9.98 9.63289 9.88533 9.59778 9.788 9.564Z" fill="#906C3B"/>
</svg>
